<svg xmlns="http://www.w3.org/2000/svg" width="28" height="21.778" viewBox="0 0 28 21.778">
  <path id="Path_57" data-name="Path 57" d="M26.222,61.2H1.778A1.778,1.778,0,0,0,0,62.979V81.2a1.778,1.778,0,0,0,1.778,1.778H26.222A1.778,1.778,0,0,0,28,81.2V62.979A1.778,1.778,0,0,0,26.222,61.2Zm0,1.778V75.908l-3.5-3.185a1.333,1.333,0,0,0-1.84.044l-3.546,3.545-6.991-8.351a1.333,1.333,0,0,0-2.033-.014l-6.531,7.59V62.979Zm-7.555,4.667a2.444,2.444,0,1,1,2.444,2.444A2.444,2.444,0,0,1,18.667,67.645Z" transform="translate(0 -61.201)" />
</svg>
