<svg id="question-mark-inside-a-circle" xmlns="http://www.w3.org/2000/svg" width="28" height="27.999" viewBox="0 0 28 27.999">
  <path id="Path_59" data-name="Path 59" d="M14,0A14,14,0,1,0,28,14,14,14,0,0,0,14,0Zm0,25.715A11.718,11.718,0,1,1,25.716,14,11.716,11.716,0,0,1,14,25.715Z"/>
  <path id="Path_60" data-name="Path 60" d="M14.266,19.337a2.1,2.1,0,0,0-2.17,2.218,2.113,2.113,0,0,0,2.17,2.217,2.1,2.1,0,0,0,2.194-2.217A2.107,2.107,0,0,0,14.266,19.337Z" transform="translate(-0.629 -1.006)"/>
  <path id="Path_61" data-name="Path 61" d="M14.519,6.092a8.444,8.444,0,0,0-4.07,1l.829,2.658a4.609,4.609,0,0,1,2.413-.732c1.218.026,1.781.611,1.781,1.463a4.7,4.7,0,0,1-1.416,2.561,5.286,5.286,0,0,0-1.437,3.8l.024.634h3.242v-.439a4.3,4.3,0,0,1,1.243-3.048c.928-1.024,2.1-2.243,2.1-4.1C19.224,7.87,17.739,6.092,14.519,6.092Z" transform="translate(-0.543 -0.317)"/>
</svg>
