<svg id="text_1_" data-name="text (1)" xmlns="http://www.w3.org/2000/svg" width="28.898" height="28.898" viewBox="0 0 28.898 28.898">
  <path id="Path_51" data-name="Path 51" d="M.847,6.448A.847.847,0,0,0,1.693,5.6V1.693H5.6A.847.847,0,0,0,5.6,0H.847A.847.847,0,0,0,0,.847V5.6A.847.847,0,0,0,.847,6.448Z"/>
  <path id="Path_52" data-name="Path 52" d="M403.366,0h-4.754a.847.847,0,1,0,0,1.693h3.908V5.6a.847.847,0,0,0,1.693,0V.847A.847.847,0,0,0,403.366,0Z" transform="translate(-375.314 0)"/>
  <path id="Path_53" data-name="Path 53" d="M403.366,397.765a.847.847,0,0,0-.847.847v3.908h-3.908a.847.847,0,1,0,0,1.693h4.754a.847.847,0,0,0,.847-.847v-4.754A.847.847,0,0,0,403.366,397.765Z" transform="translate(-375.314 -375.314)"/>
  <path id="Path_54" data-name="Path 54" d="M5.6,402.519H1.693v-3.908a.847.847,0,1,0-1.693,0v4.754a.847.847,0,0,0,.847.847H5.6a.847.847,0,0,0,0-1.693Z" transform="translate(0 -375.314)"/>
  <path id="Path_55" data-name="Path 55" d="M110.815,93.967V88.62a.48.48,0,0,0-.481-.48H92.821a.48.48,0,0,0-.481.48v5.347a.481.481,0,0,0,.481.481h2.553a.48.48,0,0,0,.48-.481V92.136a.481.481,0,0,1,.481-.481h3a.481.481,0,0,1,.481.481v13.215a.481.481,0,0,1-.481.481H98.025a.481.481,0,0,0-.481.481v2.553a.48.48,0,0,0,.481.48h7.1a.48.48,0,0,0,.481-.48v-2.553a.481.481,0,0,0-.481-.481h-1.313a.481.481,0,0,1-.481-.481V92.136a.481.481,0,0,1,.481-.481h3a.481.481,0,0,1,.481.481v1.832a.48.48,0,0,0,.48.481h2.553a.481.481,0,0,0,.481-.481Z" transform="translate(-87.128 -83.165)"/>
</svg>
